<svg id="Layer_1" data-name="Layer 1" xmlns="http://www.w3.org/2000/svg" viewBox="0 0 279.39 90.13"><defs><style>.cls-1,.cls-3{fill:#fff;}.cls-2,.cls-4,.cls-5{fill:none;}.cls-2,.cls-5{stroke:#fff;}.cls-2{stroke-linecap:round;stroke-linejoin:round;stroke-width:1px;}.cls-2,.cls-3,.cls-4,.cls-5{fill-rule:evenodd;}.cls-5{stroke-miterlimit:10;stroke-width:0.5px;}</style></defs><title>General NICERC Normal Slide</title><path class="cls-1" d="M113.94,77l4.58-9.82h.94l.59,9.82h-.82L119,73.93h-2.9L114.7,77Zm2.49-3.83H119l-.3-4.91Z"/><path class="cls-1" d="M121.43,77l2-9.82h.92l1.93,8.57L128,67.19h.76l-2,9.82h-.94l-2-8.4L122.19,77Z"/><path class="cls-1" d="M130.67,77l4.58-9.82h.94l.59,9.82H136l-.19-3.08h-2.9L131.43,77Zm2.49-3.83h2.6l-.3-4.91Z"/><path class="cls-1" d="M144.19,73.72a5.82,5.82,0,0,1-1.33,2.61,2.83,2.83,0,0,1-2.1.88,1.81,1.81,0,0,1-1.9-1.24,7.84,7.84,0,0,1,.1-3.87,9.67,9.67,0,0,1,1.46-3.87,2.9,2.9,0,0,1,2.4-1.23,2,2,0,0,1,1.76.8,3,3,0,0,1,.29,2.24H144a2.55,2.55,0,0,0-.18-1.69,1.29,1.29,0,0,0-1.19-.61A2.05,2.05,0,0,0,141,68.8a9.63,9.63,0,0,0-1.15,3.3,8.09,8.09,0,0,0-.18,3.29,1.25,1.25,0,0,0,1.3,1.06,2,2,0,0,0,1.47-.71,4.83,4.83,0,0,0,1-2Z"/><path class="cls-1" d="M144.73,77l4.57-9.82h.95l.58,9.82H150l-.19-3.08h-2.9L145.48,77Zm2.49-3.83h2.59l-.3-4.91Z"/><path class="cls-1" d="M152.21,77l2-9.82h2c1.29,0,2.13.37,2.51,1.1s.39,2,0,3.81a8,8,0,0,1-1.56,3.81,3.86,3.86,0,0,1-3,1.1Zm1-.74h1.11a2.88,2.88,0,0,0,2.31-.86,7.59,7.59,0,0,0,1.24-3.3,6.14,6.14,0,0,0,.1-3.33c-.27-.57-.92-.86-2-.86h-1.12Z"/><path class="cls-1" d="M159.63,77l2-9.82H166l-.16.77h-3.54l-.71,3.54h3.17l-.15.76h-3.18l-.8,4h3.54L164,77Z"/><path class="cls-1" d="M165.75,77l2-9.82h1.34l.61,8.68,4.13-8.68h1.33l-2,9.82h-.78l1.84-9.12L169.89,77H169l-.67-9.12L166.52,77Z"/><path class="cls-1" d="M175.26,77l2-9.82h.81l-2,9.82Z"/><path class="cls-1" d="M184.21,73.72a5.82,5.82,0,0,1-1.33,2.61,2.83,2.83,0,0,1-2.1.88,1.81,1.81,0,0,1-1.9-1.24,7.84,7.84,0,0,1,.1-3.87,9.67,9.67,0,0,1,1.46-3.87,2.9,2.9,0,0,1,2.4-1.23,2,2,0,0,1,1.76.8,3,3,0,0,1,.29,2.24h-.83a2.55,2.55,0,0,0-.18-1.69,1.29,1.29,0,0,0-1.19-.61A2.05,2.05,0,0,0,181,68.8a9.82,9.82,0,0,0-1.16,3.3,8.23,8.23,0,0,0-.17,3.29,1.24,1.24,0,0,0,1.29,1.06,2,2,0,0,0,1.48-.71,4.83,4.83,0,0,0,1-2Z"/><path class="cls-1" d="M188.47,77l2-9.82h2c1.29,0,2.13.37,2.51,1.1s.39,2,0,3.81a8,8,0,0,1-1.56,3.81,3.83,3.83,0,0,1-3,1.1Zm1-.74h1.12a2.86,2.86,0,0,0,2.3-.86,7.57,7.57,0,0,0,1.25-3.3,6.21,6.21,0,0,0,.09-3.33c-.27-.57-.92-.86-2-.86h-1.11Z"/><path class="cls-1" d="M195.91,77l2-9.82h.82l-2,9.82Z"/><path class="cls-1" d="M200.54,77,200,67.19h.82l.44,8.63,4-8.63h.79L201.45,77Z"/><path class="cls-1" d="M205.33,77l2-9.82h.82l-2,9.82Z"/><path class="cls-1" d="M208.5,74.22h.81a2.36,2.36,0,0,0,.18,1.64,1.28,1.28,0,0,0,1.18.59,2.32,2.32,0,0,0,1.54-.53,2.5,2.5,0,0,0,.82-1.45,1.87,1.87,0,0,0,0-.78,1.26,1.26,0,0,0-.35-.59,3.29,3.29,0,0,0-1-.58,4.62,4.62,0,0,1-.51-.23,2.79,2.79,0,0,1-1.37-1.11,2.37,2.37,0,0,1-.14-1.64,3.14,3.14,0,0,1,1.08-1.83,3,3,0,0,1,2-.71,2,2,0,0,1,1.65.66,2.15,2.15,0,0,1,.29,1.82l0,.06h-.76a1.81,1.81,0,0,0-.21-1.32,1.2,1.2,0,0,0-1-.46,2.06,2.06,0,0,0-1.37.51,2.32,2.32,0,0,0-.77,1.31,2.51,2.51,0,0,0,0,.66,1.34,1.34,0,0,0,.2.56,2.91,2.91,0,0,0,1.32.85l.29.13a3,3,0,0,1,1.44,1.09,2.19,2.19,0,0,1,.17,1.6,3.44,3.44,0,0,1-1.13,2,3.21,3.21,0,0,1-2.14.73,2,2,0,0,1-1.79-.77A3,3,0,0,1,208.5,74.22Z"/><path class="cls-1" d="M215.12,77l2-9.82h.81l-2,9.82Z"/><path class="cls-1" d="M218.84,72.1a9.52,9.52,0,0,1,1.47-3.87A2.87,2.87,0,0,1,222.7,67a1.82,1.82,0,0,1,1.91,1.23,7.81,7.81,0,0,1-.09,3.87A9.88,9.88,0,0,1,223.05,76a2.89,2.89,0,0,1-2.41,1.24A1.79,1.79,0,0,1,218.75,76,7.81,7.81,0,0,1,218.84,72.1Zm.83,0a7.83,7.83,0,0,0-.17,3.28,1.25,1.25,0,0,0,1.3,1.07,2.05,2.05,0,0,0,1.73-1.06,9.64,9.64,0,0,0,1.15-3.29,8.14,8.14,0,0,0,.18-3.3,1.26,1.26,0,0,0-1.31-1.06,2.06,2.06,0,0,0-1.73,1.07A9.56,9.56,0,0,0,219.67,72.1Z"/><path class="cls-1" d="M225.41,77l2-9.82h.92l1.93,8.57L232,67.19h.76l-2,9.82h-.94l-1.95-8.4L226.17,77Z"/><path class="cls-1" d="M236.66,72.1a9.81,9.81,0,0,1,1.47-3.87,2.89,2.89,0,0,1,2.4-1.23,1.82,1.82,0,0,1,1.91,1.23,7.84,7.84,0,0,1-.1,3.87A9.58,9.58,0,0,1,240.87,76a2.86,2.86,0,0,1-2.4,1.24,1.81,1.81,0,0,1-1.9-1.24A7.93,7.93,0,0,1,236.66,72.1Zm.83,0a8,8,0,0,0-.17,3.28,1.26,1.26,0,0,0,1.3,1.07,2.05,2.05,0,0,0,1.73-1.06,9.62,9.62,0,0,0,1.16-3.29,7.92,7.92,0,0,0,.17-3.3,1.25,1.25,0,0,0-1.3-1.06,2.06,2.06,0,0,0-1.73,1.07A9.34,9.34,0,0,0,237.49,72.1Z"/><path class="cls-1" d="M243.23,77l2-9.82h4.42l-.15.77h-3.55l-.72,3.54h3.18l-.15.76h-3.18l-1,4.75Z"/><path class="cls-1" d="M253.68,77l1.82-9h-2.2l.16-.79h5.22l-.16.79h-2.18l-1.83,9Z"/><path class="cls-1" d="M258,77l2-9.82h.8L260,71.35h3.8l.84-4.16h.8l-2,9.82h-.8l1-4.89h-3.81l-1,4.89Z"/><path class="cls-1" d="M265.51,77l2-9.82h4.41l-.16.77h-3.54l-.72,3.54h3.18l-.15.76h-3.18l-.8,4h3.54l-.15.76Z"/><path class="cls-1" d="M117.3,86h2.26l0,.19c0,.07,0,.18-.06.32a4.88,4.88,0,0,1-1.34,2.73,3.68,3.68,0,0,1-2.6.89,3.44,3.44,0,0,1-1.58-.32,2,2,0,0,1-.91-1,3.05,3.05,0,0,1-.16-1.31,19.61,19.61,0,0,1,.41-2.65A20.64,20.64,0,0,1,114,82.2a4.36,4.36,0,0,1,.69-1.3,3.44,3.44,0,0,1,1.29-1,4.14,4.14,0,0,1,1.69-.33,2.52,2.52,0,0,1,2.24.92,3.58,3.58,0,0,1,.25,2.75v.1h-2.24a3.3,3.3,0,0,0,.06-1.44.61.61,0,0,0-.65-.42,1,1,0,0,0-.86.51,10.67,10.67,0,0,0-.75,2.68l0,.19a11.72,11.72,0,0,0-.37,2.86.6.6,0,0,0,.66.52.93.93,0,0,0,.8-.38,3.79,3.79,0,0,0,.5-1.42Z"/><path class="cls-1" d="M121.71,89.89l.86-4.27-1.1-5.79H124l.31,3.18,1.6-3.18h2.51l-3.44,5.79-.86,4.27Z"/><path class="cls-1" d="M127.33,89.89l2-10.06h2.47a9.71,9.71,0,0,1,1.6.09,2.1,2.1,0,0,1,.79.3,1.62,1.62,0,0,1,.63.87,2.53,2.53,0,0,1,0,1.26,2.91,2.91,0,0,1-.49,1.17,4.27,4.27,0,0,1-1,1,1.76,1.76,0,0,1,.8.93,2.6,2.6,0,0,1,0,1.4,4.16,4.16,0,0,1-.48,1.27,3.87,3.87,0,0,1-.83,1,2.67,2.67,0,0,1-1.07.58,6.67,6.67,0,0,1-1.78.17ZM130,88.11h.2a1.79,1.79,0,0,0,1.15-.34,1.7,1.7,0,0,0,.58-1,1,1,0,0,0-.17-.93,1.52,1.52,0,0,0-1.08-.3h-.16Zm.88-4.35H131a1.71,1.71,0,0,0,1.06-.29,1.39,1.39,0,0,0,.51-.9.87.87,0,0,0-.16-.81,1.1,1.1,0,0,0-.85-.29h-.24Z"/><path class="cls-1" d="M135.22,89.89l2-10.06h5.36l-.39,2h-3.07l-.38,1.85h2.84l-.41,2h-2.84l-.44,2.2H141l-.41,2Z"/><path class="cls-1" d="M142.28,89.89l2-10.06h2.6a9.6,9.6,0,0,1,1.82.12,1.74,1.74,0,0,1,.85.41,1.68,1.68,0,0,1,.46.87,3.06,3.06,0,0,1,0,1.23,4,4,0,0,1-.59,1.46,3.33,3.33,0,0,1-1.12,1c.64.32.87,1.08.66,2.29v0l-.09.55q-.32,1.69.12,2.13h-2.7c0-.21,0-.43,0-.65a7.38,7.38,0,0,1,.11-.74c0-.16.08-.36.13-.59a4.08,4.08,0,0,0,.1-.44,2.18,2.18,0,0,0,0-1.26c-.11-.23-.37-.34-.78-.34h-.48l-.81,4ZM145.75,84H146a1.38,1.38,0,0,0,1.58-1.29,1.08,1.08,0,0,0-.12-.92,1.27,1.27,0,0,0-1-.27h-.3Z"/><path class="cls-1" d="M153.77,89.89l2-10.06h2.3l-2,10.06Z"/><path class="cls-1" d="M158,89.89l2-10.06h2.4L163,86c.13-1.05.26-2,.38-2.71s.23-1.4.33-1.92l.32-1.58h2.05l-2,10.06h-2.4l-.64-6.4c-.08.84-.18,1.64-.29,2.42s-.25,1.55-.39,2.28l-.35,1.7Z"/><path class="cls-1" d="M166,89.89l2-10.06h2.4l.67,6.21c.13-1.05.26-2,.37-2.71s.23-1.4.34-1.92l.31-1.58h2.06l-2,10.06h-2.41l-.63-6.4c-.09.84-.18,1.64-.3,2.42s-.24,1.55-.39,2.28l-.34,1.7Z"/><path class="cls-1" d="M174.83,84.86a22.06,22.06,0,0,1,.67-2.66,4.6,4.6,0,0,1,.68-1.3,3.45,3.45,0,0,1,1.31-1,4.21,4.21,0,0,1,1.71-.33,3.31,3.31,0,0,1,1.58.33,1.9,1.9,0,0,1,.9,1,3.06,3.06,0,0,1,.17,1.31,19.61,19.61,0,0,1-.41,2.65,20.59,20.59,0,0,1-.66,2.64,4.27,4.27,0,0,1-.7,1.32,3.55,3.55,0,0,1-1.3,1,4.38,4.38,0,0,1-1.71.32,3.42,3.42,0,0,1-1.57-.32,2,2,0,0,1-.91-1,2.91,2.91,0,0,1-.16-1.31A20.89,20.89,0,0,1,174.83,84.86Zm4.07.91.37-1.82a6.16,6.16,0,0,0,.21-2.07.63.63,0,0,0-.67-.4.94.94,0,0,0-.82.41,6.8,6.8,0,0,0-.62,2.06L177,85.77a6,6,0,0,0-.21,2,.61.61,0,0,0,.67.41.93.93,0,0,0,.82-.4A6.8,6.8,0,0,0,178.9,85.77Z"/><path class="cls-1" d="M183.62,89.89l-.18-10.06h2.44l-.21,5.28c0,.24,0,.55-.06.94s-.06.8-.11,1.25l.05-.13c.32-1,.54-1.73.65-2l1.94-5.3h2.44L186.3,89.89Z"/><path class="cls-1" d="M188.67,89.89l4.18-10.06h2.74l.09,10.06h-2.3l.1-1.93h-1.81L191,89.89Zm3.6-3.74h1.33l.22-4.4Z"/><path class="cls-1" d="M197.6,89.89l1.63-8.11h-1.84l.39-2h6.1l-.39,2h-1.94l-1.64,8.11Z"/><path class="cls-1" d="M203.06,89.89l2-10.06h2.31l-2,10.06Z"/><path class="cls-1" d="M208.06,84.86a22.06,22.06,0,0,1,.67-2.66,4.14,4.14,0,0,1,.68-1.3,3.38,3.38,0,0,1,1.31-1,4.21,4.21,0,0,1,1.71-.33,3.34,3.34,0,0,1,1.58.33,1.92,1.92,0,0,1,.89,1,2.91,2.91,0,0,1,.17,1.31,19.18,19.18,0,0,1-.4,2.65A22.45,22.45,0,0,1,214,87.5a4.27,4.27,0,0,1-.7,1.32,3.55,3.55,0,0,1-1.3,1,4.38,4.38,0,0,1-1.71.32,3.47,3.47,0,0,1-1.58-.32,2,2,0,0,1-.91-1,3.08,3.08,0,0,1-.15-1.31A19.18,19.18,0,0,1,208.06,84.86Zm4.07.91L212.5,84a6.16,6.16,0,0,0,.21-2.07.63.63,0,0,0-.68-.4,1,1,0,0,0-.82.41,7.12,7.12,0,0,0-.62,2.06l-.36,1.82a6,6,0,0,0-.21,2c.08.27.3.41.67.41a1,1,0,0,0,.82-.4A6.8,6.8,0,0,0,212.13,85.77Z"/><path class="cls-1" d="M215.34,89.89l2-10.06h2.4l.66,6.21c.13-1.05.26-2,.38-2.71s.22-1.4.33-1.92l.32-1.58h2l-2,10.06h-2.4l-.64-6.4c-.08.84-.18,1.64-.3,2.42s-.24,1.55-.39,2.28l-.34,1.7Z"/><path class="cls-1" d="M231.73,86H234l0,.19c0,.07,0,.18-.06.32a5,5,0,0,1-1.34,2.73,3.68,3.68,0,0,1-2.6.89,3.44,3.44,0,0,1-1.58-.32,2,2,0,0,1-.91-1,2.91,2.91,0,0,1-.16-1.31,19.61,19.61,0,0,1,.41-2.65,20.64,20.64,0,0,1,.66-2.66,4.36,4.36,0,0,1,.69-1.3,3.44,3.44,0,0,1,1.29-1,4.14,4.14,0,0,1,1.69-.33,2.53,2.53,0,0,1,2.24.92,3.58,3.58,0,0,1,.25,2.75v.1h-2.24a3.46,3.46,0,0,0,.06-1.44.61.61,0,0,0-.65-.42,1,1,0,0,0-.86.51,10.67,10.67,0,0,0-.75,2.68l0,.19a11.72,11.72,0,0,0-.37,2.86.59.59,0,0,0,.66.52.93.93,0,0,0,.8-.38,3.79,3.79,0,0,0,.5-1.42Z"/><path class="cls-1" d="M235,89.89l2-10.06h5.36l-.39,2h-3.07l-.37,1.85h2.83l-.41,2h-2.83l-.45,2.2h3.08l-.42,2Z"/><path class="cls-1" d="M242.06,89.89l2-10.06h2.4l.66,6.21c.13-1.05.26-2,.38-2.71s.23-1.4.33-1.92l.32-1.58h2l-2,10.06h-2.4l-.64-6.4c-.08.84-.18,1.64-.29,2.42s-.25,1.55-.4,2.28l-.34,1.7Z"/><path class="cls-1" d="M251.3,89.89l1.63-8.11h-1.84l.39-2h6.1l-.4,2h-1.94l-1.63,8.11Z"/><path class="cls-1" d="M256.76,89.89l2-10.06h5.37l-.4,2h-3.07l-.37,1.85h2.84l-.41,2h-2.84l-.44,2.2h3.07l-.41,2Z"/><path class="cls-1" d="M263.83,89.89l2-10.06h2.6a9.67,9.67,0,0,1,1.82.12,1.74,1.74,0,0,1,.85.41,1.68,1.68,0,0,1,.46.87,3.25,3.25,0,0,1,0,1.23,4,4,0,0,1-.59,1.46,3.36,3.36,0,0,1-1.13,1c.65.32.88,1.08.67,2.29v0l-.09.55c-.22,1.13-.18,1.84.11,2.13h-2.69a3.53,3.53,0,0,1,0-.65,5.31,5.31,0,0,1,.11-.74c0-.16.07-.36.13-.59s.09-.37.1-.44a2.18,2.18,0,0,0,0-1.26c-.11-.23-.37-.34-.78-.34h-.48l-.81,4ZM267.3,84h.28a1.36,1.36,0,0,0,1.57-1.29,1.05,1.05,0,0,0-.11-.92,1.28,1.28,0,0,0-1-.27h-.29Z"/><rect class="cls-1" x="113.49" y="61.51" width="158.51" height="1.34"/><path class="cls-1" d="M136.85,57.57h-3.44l-15-41.24V57.57h-4.69V1.5h3.72L132.15,42V1.5h4.7Z"/><path class="cls-1" d="M151.07,57.57h-5V1.5h5Z"/><path class="cls-1" d="M182.89,53.6a3.82,3.82,0,0,1-1.15,2.86,4,4,0,0,1-2.9,1.11H164.4a3.8,3.8,0,0,1-4-4V5.48a3.8,3.8,0,0,1,4-4h14.44a4,4,0,0,1,2.9,1.11,3.84,3.84,0,0,1,1.15,2.87v13h-5V5.91H165.4V53.17h12.47V39.37h5Z"/><path class="cls-1" d="M210,57.57H191.59V1.5h18.2V5.91H196.57V26.83h12v4.48h-12V53.17H210Z"/><path class="cls-1" d="M241.65,57.57h-5.23L226,27.55l.68-1h8.89V5.91h-12.8V57.57h-5V1.5h18.78a3.8,3.8,0,0,1,4,4V26.76q0,4.05-5.45,4c-.36,0-.88,0-1.58,0s-1.19-.06-1.5-.06Q236.84,44.11,241.65,57.57Z"/><path class="cls-1" d="M271.56,53.6a3.81,3.81,0,0,1-1.14,2.86,4,4,0,0,1-2.9,1.11H253.08a3.8,3.8,0,0,1-4-4V5.48a3.8,3.8,0,0,1,4-4h14.44a4,4,0,0,1,2.9,1.11,3.83,3.83,0,0,1,1.14,2.87v13h-5V5.91H254.08V53.17h12.47V39.37h5Z"/><path class="cls-2" d="M103.92,89.29.5,89.33c0-.42,0-.83,0-1.24a6.82,6.82,0,0,0,1.92-.76l4.6-2C12.4,83,17.61,80.51,22.83,78.2c1.55-.68,6.2-2.71,6.93-3.88,1.28-2.07.24-6.43-.48-8.25a13.22,13.22,0,0,0-3.36.4,20.57,20.57,0,0,1-6.41,0c-1.06-.18-2.16,0-2.88-.56-1.12-.84-1.23-3.43-.72-5.08.28-.9,1-1.7.76-3a2.83,2.83,0,0,0-1-2.08l-1-.6c-.2-.4.36-.82.32-1.2-.1-1-.7-1-.8-1.56.05-.3.11-.59.16-.88a5.49,5.49,0,0,0,0-3.29c-.64-1.19-4-.76-5.48-1.24-.8-.26-1-1.09-1.25-1.92,2.49-3.67,5.9-6.87,7.13-11.77.73-2.9-2-3.35-1.44-6.92a49.72,49.72,0,0,1,1.4-6.2c.25-1.14.51-2.27.76-3.41,1.06-3.37,3.15-7.18,5.6-9.16A27.32,27.32,0,0,1,33.2,1.91a30.83,30.83,0,0,1,4.92-.64l2.24-.08H44l2,.08c1.56.21,3.09.32,4.48.64,1.1.26,2.44.49,3.26.63,0-.18,0,0,0,0a22.59,22.59,0,0,0-6.9.78C39.42,5.48,35,10.42,32.52,17.56a22.94,22.94,0,0,0-1,10.81,37.65,37.65,0,0,0,1,4.56,28.78,28.78,0,0,0,4.92,9c2,2.51,4.07,3.78,5.13,7.36,1.17,4,.93,9.76.88,14.85l5.44,5.33h6.64l5.37-5.33c0-4.17-.44-9.71.52-13.08.21-.75.23-2.23.76-2.69a16.36,16.36,0,0,0-.12,6.21l.36,3.24C63,60.8,63.5,63.7,64.3,66.39c.47,1.57.76,4.21,1.64,5.37.57.75,2,1.19,2.84,1.64,2.44,1.24,5,2.26,7.65,3.36l17.85,7.57,4,1.36,5.6,2Z"/><path class="cls-3" d="M60,1.15C73.9,1,81.88,4.21,87,13c1.14,1.95,1.52,4.13,2.16,6.65.47,1.81,1,3.61,1.41,5.56a8.88,8.88,0,0,1-.16,4.28C90,30.53,88.8,31.11,89.19,33c.59,2.76,3.27,6.28,4.85,8.25.66.83,2.68,2.37,2.36,4-.65,3.33-5.47,1-6.72,2.92a4.73,4.73,0,0,0-.13,3c.07.31.34.62.25,1.08-.15.68-.75.73-1.13,1.16.2.7.78,1.25.56,2.12-.66.47-1.58.57-1.84,1.48-.42,1.51.29,2.71.6,3.68.55,1.73.54,4.4-.72,5.32s-7.23.79-9.24.48c-.67-.1-2.92-.7-3.36-.28-.18.56-.35,1.12-.52,1.69A13.36,13.36,0,0,0,74,75.76h0a69.8,69.8,0,0,1-6.41-3l-1.52-.88c-.92-1-1.33-4-1.76-5.53-.76-2.72-1.27-5.61-1.88-8.56l-.36-3.32a17.39,17.39,0,0,1,.16-6.37c.92-2.85,3.47-4.46,5.12-6.64,3.26-4.31,7.21-12.48,5.4-20.57-1.69-7.6-5.53-13.58-12-16.41a26.15,26.15,0,0,0-5.57-1.6c-.87-.18-2.71-.28-3.08-.73,1.55-.14,3.23-.52,4.88-.8Z"/><path class="cls-4" d="M58.38,61l.12,2.28-11.57.56c-.15-.74-.29-1.49-.44-2.24l4.76-2-3.6.36c-.33.05-1,.15-1.2,0-.18-.69-.35-1.39-.52-2.08l5.24-2.08v0l-5.84.44c-.06-.76-.11-1.52-.16-2.28L58.9,52.75A8.3,8.3,0,0,1,59.34,55l-4.93,1.88v0l3.93-.32c.17.73.34,1.47.52,2.2l-5.61,2.36v0Z"/><path class="cls-5" d="M50.53,2.72a25.13,25.13,0,0,1,7.33.68c7.37,2.18,12,7.47,14.2,14.76a22.69,22.69,0,0,1,.88,9.93,34.33,34.33,0,0,1-1,4.48,29.9,29.9,0,0,1-5.16,9.57c-2,2.55-3.92,3.56-5,7.24-1.18,4-.87,9.72-.88,14.81l-5.41,5.33H48.81l-5.36-5.33c0-5.34.31-11.46-1.12-15.57-1-2.86-2.79-4-4.45-6.08a41.78,41.78,0,0,1-3.44-5,26.78,26.78,0,0,1-2.56-6.81,24.31,24.31,0,0,1,6.2-22.41,19.35,19.35,0,0,1,8-4.76L49,2.88Z"/><path class="cls-3" d="M45.17,53.83c0,.76.1,1.52.16,2.28l5.84-.44,0,.08-5.2,2,.52,2.2,4.68-.4,0,.08-4.64,2c.17.74.35,1.47.52,2.2l11.49-.56L58.34,61l-5.05.24,0-.08,5.53-2.4c-.18-.71-.35-1.41-.52-2.12H58.1L54.45,57v0l4.93-2c-.18-.72-.35-1.44-.52-2.16Z"/><path class="cls-3" d="M273.65,0h2.47V.43h-1V3h-.52V.43h-1Z"/><path class="cls-3" d="M276.43,0l.77,0,.72,2.29L278.64,0h.75V3h-.48l0-2.4L278.16,3h-.48c-.25-.81-.5-1.62-.74-2.42h0V3h-.48Z"/><path class="cls-1" d="M59.92,37.26c-.45,0-.51.22-.48.55,0,.09,0,.19,0,.29a.53.53,0,0,1-.39.58c-.49.19-1,.41-1.45.64a1.19,1.19,0,0,1-1,0c-.19-.07-.33-.1-.46.1a.38.38,0,0,1-.28.12c-.93,0-1.87,0-2.81,0a2.37,2.37,0,0,0-1.09.09l-.19.1.22.43a1.3,1.3,0,0,1-.4.12,14.75,14.75,0,0,1-6-1.39A15.25,15.25,0,0,1,36.76,27.8,14.89,14.89,0,0,1,39.11,16a10,10,0,0,1,2.11-2.44c.43-.33.74-.81,1.16-1.14a15.64,15.64,0,0,1,23.14,4.3.63.63,0,0,0,.69.38,2.87,2.87,0,0,1,1.73,5.26.62.62,0,0,0-.32.7A15.61,15.61,0,0,1,60.4,37.92a.84.84,0,0,1-.54.17c-.39-.12-.43-.45-.1-.71Zm-8-24.54c-.27.08-.4-.07-.45-.34l-.18.21c-.41-.09-.63-.4-.94-.7l.53-.32,0-.06-.75.1c.41.31,0,.5,0,.66a1.55,1.55,0,0,1,.44.19c.05.06,0,.22,0,.37l.72.32c.45.2.64.08.67-.44l.61,0-.24-.43Zm-9.2,20.16A4.28,4.28,0,1,0,47,28.63,4.29,4.29,0,0,0,42.73,32.88Zm1.19-3.57,1.84-.91.11-.07a26,26,0,0,0,5.31-5.12c.09-.12.18-.25.26-.38l-.06,0a.61.61,0,0,0-.19,0,3.06,3.06,0,0,1-1.71-.51.49.49,0,0,1-.21-.26c-.21-.67-.85-.86-1.34-1.22l.64.85a.63.63,0,0,1-.7-.38c-.15-.37-.4-.31-.61-.2-.93.48-1.85,1-2.77,1.51a.44.44,0,0,0-.19.27c-.1.83-.2,1.66-.26,2.5S44,27.1,43.93,28C43.91,28.43,43.92,28.89,43.92,29.31ZM55.86,20a3.42,3.42,0,0,0-3.45,3.37,3.43,3.43,0,1,0,6.85.05A3.41,3.41,0,0,0,55.86,20ZM51.43,40c-.26-.4-.06-.51.22-.6A3.5,3.5,0,0,1,53,39.2c.79.08,1.59,0,2.39,0,.31,0,.54,0,.49-.45l.7.18.2-.61c.26-.1.5-.17.72-.28a.35.35,0,0,0,.15-.25c0-.73,0-1.46.06-2.2a2.42,2.42,0,0,0,0-.25h-.08l0,.49c-.23-.08-.42-.16-.61-.21s-.37,0-.48-.13-.07-.3-.1-.46-.06-.18-.08-.27,0-.28-.06-.42c-.68.06-1.38.14-2.08.18a.72.72,0,0,0-.59.3c-1.16,1.49-2.34,3-3.51,4.47l-.39.47ZM50.12,29.44a1.05,1.05,0,0,0,.08.13,4.57,4.57,0,0,1,1.4,3c0,.09.14.22.24.25s.42,0,.63.09a.55.55,0,0,0,.7-.33c.75-1.28,1.52-2.56,2.27-3.84.26-.44.2-.67-.2-1a.43.43,0,0,1-.16-.26.72.72,0,0,0-.5-.6,4.23,4.23,0,0,1-.82-.42.38.38,0,0,0-.57.05L50.4,29.14Zm2.06-13.25a.64.64,0,0,1,.67.34c0,.08.22.12.34.11a1.59,1.59,0,0,0,.41-.15c-.07,0-.12-.09-.18-.13-1-.53-2-1.1-3.05-1.6a10.92,10.92,0,0,0-3-1.08c-.3,0-.41.05-.42.4L47.6,14l0,.1a4.28,4.28,0,0,0-.43.19c-.21.14-.49.26-.58.46-.37.75-.66,1.54-1,2.32-.09.21-.06.28.19.32,1.23.19,2.45.41,3.68.61a1,1,0,0,0,.4-.06c.51-.18,1-.41,1.53-.55a1.32,1.32,0,0,0,.88-.73l-1,.12a.38.38,0,0,1,.16-.24c.2-.11.45-.18.35-.5,0,0,.1-.08.15-.13ZM39.29,24.3l.3-.19c.95-.74,1.89-1.49,2.84-2.22a.88.88,0,0,0,.36-.61c.06-.39.15-.77.23-1.16s.16-.84.25-1.35l-4.42-.08c-.19,0-.23.13-.25.3a9.2,9.2,0,0,0,.12,2.72c.06.39.19.76.27,1.14S39.18,23.77,39.29,24.3Zm24.28,7.34-.14,0a19.17,19.17,0,0,1-3.8,1.94.38.38,0,0,0-.18.31c0,1,0,1.91,0,2.87a.86.86,0,0,0,0,.18,6.37,6.37,0,0,1,.77-.21.37.37,0,0,1,.31.12.39.39,0,0,1-.09.33,6.68,6.68,0,0,1-.55.5.16.16,0,0,0,.15,0A15.29,15.29,0,0,0,64,34.3a.45.45,0,0,0,.09-.31C63.9,33.21,63.73,32.43,63.57,31.64Zm-4.2.17c.5-.24,1-.33,1.19-.94a.71.71,0,0,1,.4-.54s.09-.11.09-.18A1.32,1.32,0,0,1,62.13,29a.41.41,0,0,0,.31-.55q-.73-1.63-1.5-3.24c-.1-.23-.64-.32-.74-.13-.21.37-.53.4-.89.43s-.67.32-.57.78a26.75,26.75,0,0,1,.57,4.64C59.33,31.17,59.35,31.46,59.37,31.81Zm9.5-11.88a2.53,2.53,0,0,0-2.54-2.53,2.54,2.54,0,1,0,0,5.08A2.54,2.54,0,0,0,68.87,19.93ZM39.22,33a15.45,15.45,0,0,0,4.21,4.32,1.85,1.85,0,0,0,0-.25c-.26-.9-.51-1.81-.79-2.72a5.86,5.86,0,0,1-.17-2.25Zm-.34-5.71c-.48.61-.94,1.18-1.38,1.76a.47.47,0,0,0,0,.33c.19.51.4,1,.57,1.53.09.28.26.32.51.27.57-.11,1.15-.19,1.72-.31s.9-.22,1.44-.35A14.17,14.17,0,0,1,38.88,27.26Zm21.7-6.73a.48.48,0,0,0,.16,0c.85-.23,1.7-.45,2.55-.7.08,0,.15-.13.18-.22a1.55,1.55,0,0,0,.06-.31,3.11,3.11,0,0,1,1.21-1.83c-1.08-.07-2.16-.1-3.24-.14-.22,0-.23.15-.26.3-.17.74-.33,1.49-.5,2.23C60.69,20.09,60.64,20.3,60.58,20.53Zm6.66,2.17A3,3,0,0,1,64,21.61c0-.05-.13-.11-.18-.09-.63.17-1.25.36-1.87.54L67,25.13C67.62,24.41,67.29,23.56,67.24,22.7ZM42.49,13.44a2.88,2.88,0,0,1-1.62,1.66,2.85,2.85,0,0,1,2,.46l0-.38h.05l.45.76.06,0,0-.25.06,0,.74.69c.19-.47.39-.87.52-1.28s.54-.81.3-1.33l-.36,0v-.09l.71-.19v-.09ZM39,17h.43l3.92.09c.39,0,.63-.16.64-.55,0-.07-.13-.15-.21-.22l0,0,.09.21-.08.09c-.17-.12-.44-.21-.5-.38a1.39,1.39,0,0,0-.84-.74,2.72,2.72,0,0,0-2.58.16s-.07.1-.11.15-.15.26-.27.33A1.16,1.16,0,0,0,39,17Zm19-5.24-.67,2.57c1.06.37,1,.25,1,.81.21.18.41.28.51.45a.3.3,0,0,0,.38.18,2,2,0,0,1,.34,0c.2,0,.26-.09.27-.28,0-.55.08-1.1.11-1.65s0-.46-.42-.55a.74.74,0,0,1-.21-.07A2.27,2.27,0,0,1,58,11.74ZM51.76,34.63c-.24-.13-.4-.17-.53.1a4.59,4.59,0,0,1-4.58,2.77.32.32,0,0,0-.25.19,6.15,6.15,0,0,0-.09.75.46.46,0,0,0,.38.56,3.23,3.23,0,0,1,.66.23.4.4,0,0,0,.55-.13l3.31-3.71A9.3,9.3,0,0,0,51.76,34.63ZM51,20.12a1.59,1.59,0,0,0-1.76,0l-.58.28-.54.28a4.73,4.73,0,0,1,.6.42,3,3,0,0,1,.64.73,1,1,0,0,0,.55.51,3.51,3.51,0,0,0,1.18.32.69.69,0,0,0,.86-.55l-.13,0a.82.82,0,0,1-1.1-.8C50.67,20.89,50.6,20.46,51,20.12Zm13.5,8.49,1.67-1.88L62.77,24.6l-.09.1a3.1,3.1,0,0,0,.48.7.64.64,0,0,1,.3.58.53.53,0,0,0,0,.28C63.79,27,64.11,27.79,64.46,28.61ZM42.33,24.17c-.68.57-1.27,1.1-1.89,1.6-.24.19-.28.36-.1.58.56.65,1.12,1.28,1.68,1.92,0,0,.07,0,.11,0ZM64.4,15.64a15,15,0,0,0-2.78-2.91c0,.92,0,1.76-.08,2.59,0,.27.1.33.33.32ZM53.23,10.91c.23.15.36.3.53.34.69.19,1.39.34,2,.49.08.15.13.3.17.3s.28,0,.3-.12a11.33,11.33,0,0,0,.28-1.15s-.11-.19-.16-.19a4.69,4.69,0,0,1-.62.1c-.43,0-.86,0-1.29-.07l0,0,.06-.12-.24-.28Zm5.53,1.53a.93.93,0,0,0,.9.65c.17,0,.25-.06.25-.24,0-.37,0-.74,0-1.11a.36.36,0,0,0-.14-.26c-.48-.28-1-.54-1.5-.81l-.09.27.32.32-.33.21a2.79,2.79,0,0,1,.1.39A.57.57,0,0,0,58.76,12.44ZM37,26.76l.93-1L37,22.41A12,12,0,0,0,37,26.76Zm15.87-6.1-.07-.12c-.5-.13-1-.27-1.5-.38a.43.43,0,0,0-.28.16c-.28.31-.18.7-.18,1.06a.7.7,0,0,0,.61.64.65.65,0,0,0,.68-.39.75.75,0,0,1,.09-.15Zm7.72,10.57.06.06,2.08-1.18c.11-.07.24-.26.22-.36a7.8,7.8,0,0,0-.31-.93,2.17,2.17,0,0,1-.4.27c-.32.12-.62.17-.8.54a1.41,1.41,0,0,0-.23.63s0,.15-.07.16C60.73,30.56,60.72,30.94,60.57,31.23Zm-3.84,1.3.7-.12c.2,0,.27-.13.25-.32-.06-.64-.11-1.27-.17-1.9,0-.41-.08-.82-.12-1.22l-.1,0c-.14.34-.41.7-.38,1a7.53,7.53,0,0,1,0,1.17C56.86,31.58,56.78,32,56.73,32.53ZM55.64,13.08,56,13l-.49-.53.6-.15v-.11l-.33-.1L55.52,12c-.1-.07-.18-.18-.29-.21a1.69,1.69,0,0,0-.61-.14c-.32,0-.64.09-.92-.18L54.62,13l.18-.34c.18.07.41.06.3.37,0,0,.09.14.15.16a3.55,3.55,0,0,0,.47.08s0,0,0,0ZM66.86,28.85l-.17-.13c-.52.54-1,1.09-1.54,1.64a.34.34,0,0,0-.06.26c.11.47.24.93.37,1.4l.09,0ZM55.17,32.77l1.18-.17c.08,0,.19-.1.2-.17.07-.35.12-.71.17-1.06s.06-.63.08-.95a2.32,2.32,0,0,0-.07-.39Zm-6.76-4.32c.23.18.36.14.51,0q1.65-1.59,3.31-3.14c.25-.23.24-.41,0-.69Zm10.7-9.24.37-1.73-1.75.21Zm-6.53-9.5c.16.25.3.49.47.71,0,.05.15.06.23.08,0-.2.18-.12.32-.12s.2-.11.29-.18.14-.15.22-.18l1-.25A3.16,3.16,0,0,0,52.58,9.71Zm4.87,25.95,0-.36.21-.1a1.76,1.76,0,0,1,0-.38,6.72,6.72,0,0,1,.2-.7,6.19,6.19,0,0,0-1,.22.54.54,0,0,0-.24.44c0,.43.13.84.72.8A1.28,1.28,0,0,1,57.45,35.66ZM46.89,10.24l-2.46,1.15.06.17c.43-.09.86-.19,1.3-.27A1.21,1.21,0,0,0,46.89,10.24Zm11.24,5c0-.18,0-.45-.12-.52s-.57-.26-.68-.16-.2.48-.28.73a1.65,1.65,0,0,1,.57.08c.11.07.14.25.2.4l.88,0C58.7,15.33,58.27,15.49,58.13,15.27ZM42,13.64a1.67,1.67,0,0,0-.53,0A4.32,4.32,0,0,0,40,15.27C40.59,14.69,41.56,14.6,42,13.64ZM54.66,10.2l.46.28a.44.44,0,0,0,.25.1c.37,0,.73-.11,1.08-.18.07,0,.13-.09.17-.16s0-.16,0-.16a2.15,2.15,0,0,0-.73-.17A10.89,10.89,0,0,0,54.66,10.2ZM44.78,20.36,46,19.67a2.94,2.94,0,0,0-.42-.48.52.52,0,0,0-.36-.12c-.07,0-.16.15-.19.24C44.94,19.63,44.88,20,44.78,20.36Zm4.4-10,.66.28,0-.05-.24-.18A1.4,1.4,0,0,1,50.75,10c-.18-.16-.31-.31-.47-.43a.4.4,0,0,0-.59.08C49.51,9.88,49.37,10.12,49.18,10.37ZM59.63,25.29a4.33,4.33,0,0,1,.34-.5c.2-.23.09-.47,0-.68a.26.26,0,0,0-.46,0c-.12.34-.22.68-.34,1ZM55,27.07l.71,1.1.54-1Zm5.76-2.24-1-1.78-.24.76c.76,0,.59.56.73,1ZM50,11.45l-.67,0-.67,0v.21l-.4,0c0,.07.11.13.16.21s.13.3.21.31c.4,0,.79.41,1.25,0a1.65,1.65,0,0,1-1.25-.3,3.78,3.78,0,0,1,.74-.34.49.49,0,0,1,.65.35Zm4.88,2.19.49,1.15c.44-.43.06-.75-.14-1.08C55.24,13.66,55.1,13.67,54.92,13.64Zm.69,4.92-.45,1.05C55.79,19.6,55.87,19.41,55.61,18.56Zm-1-5.33.7.28.32.42.09,0,.08-.35c-.3-.3-1,.07-.9-.67ZM51,10.63l0-.14c-.35-.43-.73-.33-1.21,0Zm6.57,4.87a1.3,1.3,0,0,0-.54.06c-.11.06-.14.26-.21.42C57.41,16.06,57.47,16,57.61,15.5ZM51.5,12.13l.68-.11a3,3,0,0,0-.54-.5s-.23.14-.35.22l.05.09.33.09Zm.57,1.33,0,.06,1.18.66c-.13-.35-.18-.65-.59-.52,0,0-.11-.12-.18-.2Zm-.71-1.2-.24-.63-.49.26C50.89,12.05,51.05,12.38,51.36,12.26Zm-5.55,6.86c.23.49.5.51.87.09Zm7.16-.4c.72.29.82.27.9-.24Zm-3.49-7-.23.2.26.25.31-.18Zm3.15,4.83c-.4-.25-.58-.23-.75-.05C52,16.22,52.33,16.62,52.63,16.51ZM50.7,11.05c.26.42.54.16.77.18Zm1.48,2c0,.13.06.26.08.26a3.49,3.49,0,0,0,.43-.07v-.06ZM57.71,38.8c-.33-.19-.47-.18-.62,0Z"/><path class="cls-1" d="M47,35a2.16,2.16,0,0,1-2.15-2.16,2.16,2.16,0,1,1,4.31,0A2.14,2.14,0,0,1,47,35Z"/><path class="cls-1" d="M57.59,23.35a1.76,1.76,0,1,1-3.51,0,1.76,1.76,0,1,1,3.51,0Z"/><path class="cls-1" d="M39.19,22.7l.81.42c-.21.35-.36.36-.54.08a1.2,1.2,0,0,0-.21-.17c-.06-.06-.11-.14-.17-.2Z"/><path class="cls-1" d="M66.32,21.31A1.35,1.35,0,0,1,65,19.93a1.33,1.33,0,0,1,1.43-1.35A1.36,1.36,0,0,1,67.73,20,1.39,1.39,0,0,1,66.32,21.31Z"/></svg>