<svg id="Layer_1" data-name="Layer 1" xmlns="http://www.w3.org/2000/svg" xmlns:xlink="http://www.w3.org/1999/xlink" viewBox="0 0 348 900" style = "position: absolute; left: 0; bottom: 0; height: 100%;"><defs><style>.cls-1{fill:none;}.cls-2{fill:#333;}.cls-3{fill:url(#linear-gradient);}.cls-4{clip-path:url(#clip-path);}.cls-5{clip-path:url(#clip-path-2);}.cls-6{opacity:0.14;}.cls-7{opacity:0.22;}.cls-8{clip-path:url(#clip-path-4);}.cls-9{fill:#e5e5e5;}.cls-10{clip-path:url(#clip-path-5);}.cls-11{clip-path:url(#clip-path-6);}.cls-12{clip-path:url(#clip-path-7);}.cls-13{opacity:0.25;}.cls-14{clip-path:url(#clip-path-8);}.cls-15{clip-path:url(#clip-path-9);}.cls-16{opacity:0.05;}.cls-17{clip-path:url(#clip-path-10);}.cls-18{fill:#fff;}.cls-19{clip-path:url(#clip-path-11);}.cls-20{opacity:0.41;}.cls-21{clip-path:url(#clip-path-12);}.cls-22{opacity:0.03;}.cls-23{clip-path:url(#clip-path-13);}.cls-24{fill:gray;}.cls-25{clip-path:url(#clip-path-14);}.cls-26{opacity:0.04;}.cls-27{clip-path:url(#clip-path-15);}.cls-28{clip-path:url(#clip-path-16);}.cls-29{opacity:0.08;}.cls-30{clip-path:url(#clip-path-17);}.cls-31{opacity:0.1;}.cls-32{clip-path:url(#clip-path-18);}.cls-33{opacity:0.09;}.cls-34{clip-path:url(#clip-path-19);}.cls-35{clip-path:url(#clip-path-20);}.cls-36{clip-path:url(#clip-path-21);}.cls-37{clip-path:url(#clip-path-22);}.cls-38{clip-path:url(#clip-path-23);}.cls-39{clip-path:url(#clip-path-24);}.cls-40{clip-path:url(#clip-path-25);}.cls-41{clip-path:url(#clip-path-26);}.cls-42{opacity:0.12;}.cls-43{clip-path:url(#clip-path-27);}.cls-44{clip-path:url(#clip-path-28);}.cls-45{clip-path:url(#clip-path-29);}.cls-46{clip-path:url(#clip-path-30);}.cls-47{clip-path:url(#clip-path-31);}.cls-48{clip-path:url(#clip-path-32);}.cls-49{clip-path:url(#clip-path-33);}.cls-50{clip-path:url(#clip-path-34);}.cls-51{clip-path:url(#clip-path-35);}</style><linearGradient id="linear-gradient" x1="203.89" y1="785.37" x2="174.09" y2="836.98" gradientUnits="userSpaceOnUse"><stop offset="0.13" stop-color="#333" stop-opacity="0"/><stop offset="0.6" stop-color="#333" stop-opacity="0.04"/><stop offset="0.78" stop-color="#333" stop-opacity="0.17"/><stop offset="0.9" stop-color="#333" stop-opacity="0.4"/><stop offset="0.99" stop-color="#333" stop-opacity="0.73"/><stop offset="1" stop-color="#333" stop-opacity="0.75"/></linearGradient><clipPath id="clip-path"><polyline class="cls-1" points="924.54 0 924.54 900 0 900 0 0"/></clipPath><clipPath id="clip-path-2"><rect class="cls-1" x="-1066.23" y="-357.66" width="1397.16" height="1702.4" transform="translate(-411.39 -120.32) rotate(-40.76)"/></clipPath><clipPath id="clip-path-4"><rect class="cls-1" x="11" y="66.48" width="61.83" height="131.84" transform="translate(-76.27 59.48) rotate(-40.76)"/></clipPath><clipPath id="clip-path-5"><rect class="cls-1" x="-9.97" y="7.15" width="61.83" height="128.41" transform="translate(-41.51 30.98) rotate(-40.76)"/></clipPath><clipPath id="clip-path-6"><rect class="cls-1" x="31.55" y="132.18" width="66.96" height="130.12" transform="translate(-113 90.3) rotate(-40.76)"/></clipPath><clipPath id="clip-path-7"><rect class="cls-1" x="107.55" y="181.28" width="61.83" height="126.27" transform="translate(-125.99 149.68) rotate(-40.76)"/></clipPath><clipPath id="clip-path-8"><rect class="cls-1" x="129.95" y="245.21" width="63.54" height="128.41" transform="translate(-162.79 180.63) rotate(-40.76)"/></clipPath><clipPath id="clip-path-9"><rect class="cls-1" x="58.25" y="52.62" width="59.26" height="123.27" transform="translate(-53.28 85.08) rotate(-40.76)"/></clipPath><clipPath id="clip-path-10"><rect class="cls-1" x="38.36" y="-7.23" width="54.98" height="124.99" transform="translate(-20.11 56.39) rotate(-40.76)"/></clipPath><clipPath id="clip-path-11"><rect class="cls-1" x="17.21" y="-62.43" width="54.98" height="118.14" transform="translate(13.04 28.37) rotate(-40.76)"/></clipPath><clipPath id="clip-path-12"><rect class="cls-1" x="-27.71" y="155.71" width="73.81" height="131.84" transform="matrix(0.76, -0.65, 0.65, 0.76, -142.47, 59.76)"/></clipPath><clipPath id="clip-path-13"><rect class="cls-1" x="-5.43" y="225.02" width="75.52" height="138.68" transform="translate(-184.34 92.51) rotate(-40.76)"/></clipPath><clipPath id="clip-path-14"><rect class="cls-1" x="15.29" y="300.53" width="81.09" height="143.82" transform="translate(-229.62 126.78) rotate(-40.76)"/></clipPath><clipPath id="clip-path-15"><rect class="cls-1" x="99.44" y="346.37" width="77.24" height="138.68" transform="translate(-237.93 190.96) rotate(-40.76)"/></clipPath><clipPath id="clip-path-16"><rect class="cls-1" x="76.88" y="272.22" width="66.96" height="133.55" transform="translate(-194.56 154.27) rotate(-40.76)"/></clipPath><clipPath id="clip-path-17"><rect class="cls-1" x="224.54" y="351.99" width="67.82" height="130.12" transform="translate(-209.6 269.89) rotate(-40.76)"/></clipPath><clipPath id="clip-path-18"><rect class="cls-1" x="128.38" y="424.12" width="74.67" height="137.83" transform="translate(-281.7 227.77) rotate(-40.76)"/></clipPath><clipPath id="clip-path-19"><rect class="cls-1" x="209.3" y="460.09" width="71.24" height="139.54" transform="translate(-286.53 288.42) rotate(-40.76)"/></clipPath><clipPath id="clip-path-20"><rect class="cls-1" x="166.94" y="509.32" width="72.1" height="136.54" transform="translate(-327.86 272.62) rotate(-40.76)"/></clipPath><clipPath id="clip-path-21"><rect class="cls-1" x="77.08" y="461.94" width="78.95" height="145.07" transform="translate(-320.68 205.73) rotate(-40.76)"/></clipPath><clipPath id="clip-path-22"><rect class="cls-1" x="-6" y="428.01" width="77.24" height="138.68" transform="translate(-316.8 141.92) rotate(-40.76)"/></clipPath><clipPath id="clip-path-23"><rect class="cls-1" x="17.14" y="506.07" width="86.23" height="145.53" transform="matrix(0.76, -0.65, 0.65, 0.76, -363.3, 179.73)"/></clipPath><clipPath id="clip-path-24"><rect class="cls-1" x="113.37" y="547.4" width="78.95" height="153.81" transform="translate(-370.53 251.21) rotate(-40.76)"/></clipPath><clipPath id="clip-path-25"><rect class="cls-1" x="-68.78" y="462" width="86.08" height="141.42" transform="translate(-354.04 112.4) rotate(-40.76)"/></clipPath><clipPath id="clip-path-26"><rect class="cls-1" x="13.53" y="587.43" width="63.54" height="128.41" transform="translate(-414.45 187.62) rotate(-40.76)"/></clipPath><clipPath id="clip-path-27"><rect class="cls-1" x="-16.98" y="688.58" width="77.24" height="138.68" transform="translate(-489.59 197.95) rotate(-40.76)"/></clipPath><clipPath id="clip-path-28"><rect class="cls-1" x="-39.54" y="614.44" width="66.96" height="133.55" transform="translate(-446.22 161.26) rotate(-40.76)"/></clipPath><clipPath id="clip-path-29"><rect class="cls-1" x="108.11" y="694.2" width="67.82" height="130.12" transform="translate(-461.26 276.88) rotate(-40.76)"/></clipPath><clipPath id="clip-path-30"><rect class="cls-1" x="11.95" y="766.33" width="74.67" height="137.83" transform="matrix(0.76, -0.65, 0.65, 0.76, -533.36, 234.76)"/></clipPath><clipPath id="clip-path-31"><rect class="cls-1" x="92.88" y="802.3" width="71.24" height="139.54" transform="translate(-538.2 295.41) rotate(-40.76)"/></clipPath><clipPath id="clip-path-32"><rect class="cls-1" x="50.52" y="851.53" width="72.1" height="136.54" transform="translate(-579.53 279.61) rotate(-40.76)"/></clipPath><clipPath id="clip-path-33"><rect class="cls-1" x="-39.34" y="804.15" width="78.95" height="145.07" transform="translate(-572.34 212.72) rotate(-40.76)"/></clipPath><clipPath id="clip-path-34"><polyline class="cls-1" points="924.54 -1482 924.54 -582 0 -582 0 -1482"/></clipPath><clipPath id="clip-path-35"><rect class="cls-1" x="-1066.23" y="-1839.66" width="1397.16" height="1702.4" transform="translate(556.18 -479.77) rotate(-40.76)"/></clipPath></defs><title>General NICERC Normal Slide</title><polygon class="cls-2" points="291.58 900 0 736.47 0 900 291.58 900"/><polygon class="cls-3" points="0 736.47 0 680 402.43 900 291.58 900 0 736.47"/><g class="cls-4"><g class="cls-5"><g class="cls-5"><g class="cls-7"><g class="cls-8"><polygon class="cls-9" points="66.22 170.22 28.13 160.11 0.18 127.69 5.5 105.01 42.48 113.83 69.49 142.54 66.22 170.22"/></g></g><g class="cls-7"><g class="cls-10"><polygon class="cls-9" points="43.49 108.44 50.76 84.09 24.87 56.68 -14.35 45.27 -21.91 65.35 6.04 97.77 43.49 108.44"/></g></g><g class="cls-7"><g class="cls-11"><polygon class="cls-9" points="29.82 169.94 69.4 176.52 95.11 206.35 89.43 233.85 53.39 228.75 23.02 196.15 29.82 169.94"/></g></g><g class="cls-7"><g class="cls-12"><polygon class="cls-9" points="105.17 218.02 99.67 243.11 126.5 274.23 162.26 279.01 164.51 252.77 141.59 226.19 105.17 218.02"/></g></g><g class="cls-13"><g class="cls-14"><polygon class="cls-9" points="127.08 282.77 121.57 307.86 152.59 343.85 185.56 345.38 186.59 315.11 160.88 285.28 127.08 282.77"/></g></g><g class="cls-7"><g class="cls-15"><polygon class="cls-9" points="55.23 89.28 48.79 110.65 76.91 140.66 109.06 149.11 114.21 128.86 92.12 99.3 55.23 89.28"/></g></g><g class="cls-16"><g class="cls-17"><polygon class="cls-18" points="87.92 90.49 54.65 80.74 30.06 52.2 32.97 29.35 65.12 37.81 91.94 68.93 87.92 90.49"/></g></g><g class="cls-7"><g class="cls-19"><polygon class="cls-9" points="15.35 -27.8 6.67 -9.02 32.56 18.4 63.24 30.39 68.38 10.13 47.04 -17.25 15.35 -27.8"/></g></g><g class="cls-20"><g class="cls-21"><polygon class="cls-9" points="-26.57 193.69 -35.12 223.1 -8.77 248.42 34.16 258.89 43.55 230.45 15.6 198.03 -26.57 193.69"/></g></g><g class="cls-22"><g class="cls-23"><polygon class="cls-24" points="-5.02 263.27 -15.71 292.82 15.59 329.14 56.61 336.73 65.1 300.03 39.39 270.2 -5.02 263.27"/></g></g><g class="cls-22"><g class="cls-25"><polygon class="cls-24" points="16.64 339.53 7.36 374.66 40.14 407.44 83.24 415.49 89.03 374.34 62.99 344.79 16.64 339.53"/></g></g><g class="cls-26"><g class="cls-27"><polygon class="cls-24" points="100.06 385.18 93.84 419.92 126.62 452.7 167.84 453.33 171.47 420.82 141.29 385.8 100.06 385.18"/></g></g><g class="cls-7"><g class="cls-28"><polygon class="cls-9" points="75.34 309.29 67.24 336.61 98.54 372.92 134.58 378.02 139.32 346.81 114.73 318.28 75.34 309.29"/></g></g><g class="cls-29"><g class="cls-30"><polygon class="cls-24" points="221.8 421.52 248.54 453.85 283.82 452.82 284.38 420.69 258.67 390.87 224.87 388.36 221.8 421.52"/></g></g><g class="cls-31"><g class="cls-32"><polygon class="cls-24" points="128.31 462.54 122.28 494.87 154.6 533.68 192.95 532.28 196.01 499.12 168.81 464.93 128.31 462.54"/></g></g><g class="cls-33"><g class="cls-34"><polygon class="cls-24" points="234 568.1 274.02 568.64 275.23 535.95 245.6 501.58 206.32 499.28 204.93 534.38 234 568.1"/></g></g><g class="cls-26"><g class="cls-35"><polygon class="cls-24" points="229.95 581.76 228.19 617.75 191.04 615.3 166.45 586.76 165.69 547.86 202.74 547.57 229.95 581.76"/></g></g><g class="cls-31"><g class="cls-36"><polygon class="cls-24" points="76.72 501.3 70.21 536.11 105 577.88 146.28 576.36 149.59 540.66 120.31 503.87 76.72 501.3"/></g></g><g class="cls-22"><g class="cls-37"><polygon class="cls-24" points="-5.38 466.82 -11.6 501.56 23.78 537.95 62.4 534.97 66.03 502.46 35.84 467.45 -5.38 466.82"/></g></g><g class="cls-26"><g class="cls-38"><polygon class="cls-24" points="20.83 545.01 7.95 578.96 46.96 625.81 91.14 620.03 96.97 584.07 64.14 542.81 20.83 545.01"/></g></g><g class="cls-26"><g class="cls-39"><polygon class="cls-24" points="141.1 667.5 187.03 668.12 188.41 630.61 154.42 591.17 109.34 588.52 107.75 628.8 141.1 667.5"/></g></g><g class="cls-31"><g class="cls-40"><polygon class="cls-24" points="-65.39 501.79 -75.21 537.6 -34.45 579.5 2.37 573.58 14.2 538.63 -21.68 499 -65.39 501.79"/></g></g><g class="cls-33"><g class="cls-41"><polygon class="cls-9" points="10.65 624.99 5.15 650.07 36.17 686.06 69.14 687.6 70.17 657.32 44.46 627.49 10.65 624.99"/></g></g><g class="cls-42"><g class="cls-43"><polygon class="cls-24" points="-16.37 727.39 -22.58 762.13 10.19 794.91 51.42 795.54 55.05 763.03 24.86 728.02 -16.37 727.39"/></g></g><g class="cls-7"><g class="cls-44"><polygon class="cls-9" points="-41.09 651.5 -49.19 678.82 -17.89 715.13 18.16 720.24 22.9 689.02 -1.69 660.49 -41.09 651.5"/></g></g><g class="cls-29"><g class="cls-45"><polygon class="cls-24" points="105.37 763.73 132.11 796.06 167.4 795.04 167.96 762.91 142.25 733.08 108.44 730.57 105.37 763.73"/></g></g><g class="cls-31"><g class="cls-46"><polygon class="cls-24" points="11.89 804.75 5.85 837.08 38.18 875.9 76.52 874.49 79.59 841.33 52.38 807.15 11.89 804.75"/></g></g><g class="cls-33"><g class="cls-47"><polygon class="cls-18" points="117.57 910.31 157.59 910.85 158.8 878.16 129.18 843.8 89.9 841.49 88.51 876.59 117.57 910.31"/></g></g><g class="cls-26"><g class="cls-48"><polygon class="cls-18" points="113.52 923.97 111.77 959.96 74.62 957.51 50.02 928.98 49.27 890.07 86.31 889.79 113.52 923.97"/></g></g><g class="cls-31"><g class="cls-49"><polygon class="cls-24" points="-39.7 843.52 -46.22 878.32 -11.43 920.1 29.86 918.57 33.17 882.88 3.89 846.08 -39.7 843.52"/></g></g></g></g></g></svg>